<?xml version="1.0" standalone="no"?>
<!DOCTYPE svg PUBLIC "-//W3C//DTD SVG 20010904//EN"
 "http://www.w3.org/TR/2001/REC-SVG-20010904/DTD/svg10.dtd">
<svg version="1.0" xmlns="http://www.w3.org/2000/svg"
 width="200.000000pt" height="200.000000pt" viewBox="0 0 200.000000 200.000000"
 preserveAspectRatio="xMidYMid meet">
<metadata>
Created by potrace 1.14, written by Peter Selinger 2001-2017
</metadata>
<g transform="translate(0.000000,200.000000) scale(0.100000,-0.100000)"
fill="#000000" stroke="none">
<path d="M977 1493 c-4 -3 -7 -17 -7 -29 0 -33 -46 -130 -65 -138 -24 -9 -169
61 -180 87 -13 28 -53 29 -72 1 -12 -19 -11 -24 6 -45 16 -20 22 -22 43 -12
19 9 35 5 94 -22 60 -28 70 -36 69 -58 0 -38 -67 -99 -99 -91 -15 4 -36 -1
-54 -12 -28 -16 -32 -16 -73 0 -24 10 -56 31 -71 47 -23 25 -31 28 -48 19 -38
-20 -14 -79 28 -66 29 9 132 -41 132 -64 0 -10 4 -22 10 -25 14 -8 -16 -63
-53 -97 -17 -17 -27 -34 -23 -43 7 -20 46 -19 46 1 0 8 12 35 26 60 22 37 31
44 58 44 18 0 37 5 42 10 11 11 81 -35 76 -51 -1 -5 2 -19 8 -29 13 -24 68
-28 76 -5 3 8 42 26 85 40 72 23 81 24 95 10 9 -9 30 -15 48 -13 35 2 82 -32
97 -70 13 -33 54 -27 54 8 0 19 -6 26 -25 28 -39 6 -80 50 -80 88 0 21 -7 38
-20 47 -17 12 -20 26 -21 96 -1 46 3 87 7 91 5 5 38 -9 73 -30 64 -39 148
-135 171 -196 10 -24 34 -32 45 -15 3 6 -3 18 -13 28 -10 10 -40 48 -65 84
l-47 66 41 38 c23 21 55 41 73 44 35 8 47 40 22 60 -21 17 -44 7 -55 -22 -9
-23 -87 -97 -102 -97 -14 0 -124 70 -122 77 4 17 -31 43 -57 43 -19 0 -44 17
-88 60 -61 59 -72 66 -85 53z m97 -99 c31 -25 56 -53 56 -63 0 -11 6 -21 13
-24 11 -4 16 -105 8 -175 -2 -18 -16 -8 -101 68 -40 36 -76 67 -80 70 -4 3
-12 15 -18 27 -10 17 -7 32 16 82 15 33 32 60 39 61 6 0 36 -20 67 -46z m-35
-217 c100 -86 99 -101 -7 -135 -67 -22 -73 -22 -89 -7 -10 11 -26 15 -42 12
-41 -8 -82 31 -86 81 -3 34 2 44 31 73 19 18 46 34 59 35 14 0 28 4 32 8 10
10 17 6 102 -67z"/>
<path d="M232 795 l3 -80 48 1 c50 2 96 25 98 49 5 57 1 72 -27 90 -14 9 -48
17 -75 18 l-50 2 3 -80z m116 -3 c-3 -29 -38 -53 -67 -45 -14 4 -18 14 -17 46
1 49 18 61 59 40 22 -11 28 -20 25 -41z"/>
<path d="M843 867 c-7 -12 17 -26 34 -20 7 3 13 1 14 -3 9 -81 0 -110 -31 -94
-13 7 -21 7 -26 -1 -10 -17 23 -38 49 -31 41 9 47 22 47 91 l0 66 -41 0 c-22
1 -43 -3 -46 -8z"/>
<path d="M552 850 c-24 -26 -28 -40 -12 -40 6 0 10 -15 10 -34 0 -38 30 -69
57 -59 16 6 11 29 -6 26 -11 -3 -13 3 -13 32 0 30 2 35 17 35 8 0 15 5 15 10
0 6 -6 10 -13 10 -8 0 -18 10 -24 22 l-9 21 -22 -23z"/>
<path d="M421 831 c-20 -13 -5 -29 23 -24 13 3 27 0 30 -6 5 -7 -2 -11 -16
-11 -14 0 -32 -6 -42 -13 -15 -11 -17 -17 -7 -35 6 -12 16 -22 21 -23 6 0 27
-1 47 -1 l37 -1 1 46 c1 26 -3 51 -10 57 -18 15 -68 22 -84 11z m57 -73 c-7
-19 -38 -22 -38 -4 0 10 9 16 21 16 12 0 19 -5 17 -12z"/>
<path d="M653 834 c-7 -3 -9 -12 -6 -19 3 -10 10 -12 21 -6 18 9 42 4 42 -9 0
-4 -15 -11 -34 -14 -19 -4 -36 -13 -39 -20 -8 -21 16 -47 43 -47 75 1 70 -2
70 45 0 27 -6 51 -16 60 -15 15 -55 20 -81 10z m61 -79 c-6 -16 -44 -21 -44
-7 0 14 12 22 31 22 12 0 16 -5 13 -15z"/>
<path d="M977 823 c-46 -53 5 -126 71 -102 43 16 48 85 8 111 -20 14 -63 8
-79 -9z m71 -42 c4 -29 -15 -43 -40 -30 -18 10 -24 39 -11 53 15 15 48 1 51
-23z"/>
<path d="M1110 790 c0 -44 3 -51 28 -64 16 -8 34 -11 41 -6 7 4 22 5 32 3 17
-5 19 1 19 56 0 48 -3 61 -15 61 -16 0 -16 0 -19 -47 -1 -18 -7 -38 -13 -44
-17 -17 -41 16 -39 56 1 27 -2 35 -16 35 -15 0 -18 -9 -18 -50z"/>
<path d="M1264 780 c-1 -50 1 -60 16 -60 12 0 17 9 18 36 1 24 9 41 24 54 27
21 16 40 -12 22 -12 -7 -20 -8 -20 -2 0 5 -6 10 -13 10 -8 0 -12 -19 -13 -60z"/>
<path d="M1357 826 c-2 -6 0 -21 4 -33 5 -12 4 -25 0 -28 -13 -7 -2 -43 15
-49 10 -4 14 3 14 22 0 51 11 73 34 70 17 -2 21 -10 21 -43 1 -29 5 -41 18
-43 14 -3 17 5 17 42 0 26 -6 51 -15 59 -17 18 -102 20 -108 3z"/>
<path d="M1523 813 c-23 -34 -19 -69 10 -85 26 -15 36 -16 60 -8 23 8 18 25
-8 26 -40 3 -45 4 -45 14 0 6 20 10 45 10 30 0 45 4 45 13 0 24 -25 48 -57 53
-26 4 -34 0 -50 -23z m72 -13 c4 -6 -7 -10 -25 -10 -18 0 -29 4 -25 10 3 6 15
10 25 10 10 0 22 -4 25 -10z"/>
<path d="M1646 818 c3 -13 15 -41 25 -62 11 -22 19 -41 19 -42 0 -1 -15 -7
-32 -13 -25 -9 -30 -14 -19 -20 15 -10 50 -6 62 6 4 5 21 38 37 75 24 53 27
68 16 72 -9 3 -20 -9 -33 -37 l-19 -42 -17 43 c-18 44 -52 62 -39 20z"/>
</g>
</svg>
